mtllib model_2.mtl
o model_2
v -0.19021806120872498 -0.09167302399873734 4.025030136108398 
v 0.21625034511089325 -0.11157657206058502 4.0775933265686035 
v -0.04560910165309906 -0.2429399937391281 4.13493537902832 
v 0.21625034511089325 -0.11157657206058502 4.0775933265686035 
v -0.19021806120872498 -0.09167302399873734 4.025030136108398 
v 0.17716684937477112 0.13124674558639526 4.048922538757324 
v -0.19021806120872498 -0.09167302399873734 4.025030136108398 
v -0.04560910165309906 -0.2429399937391281 4.13493537902832 
v -0.25666001439094543 0.03969041258096695 4.173163414001465 
v -0.19021806120872498 -0.09167302399873734 4.025030136108398 
v -0.25666001439094543 0.03969041258096695 4.173163414001465 
v -0.11595939844846725 0.19095739722251892 4.048922538757324 
v -0.19021806120872498 -0.09167302399873734 4.025030136108398 
v -0.11595939844846725 0.19095739722251892 4.048922538757324 
v 0.17716684937477112 0.13124674558639526 4.048922538757324 
v 0.21625034511089325 -0.11157657206058502 4.0775933265686035 
v 0.17716684937477112 0.13124674558639526 4.048922538757324 
v 0.23970045149326324 0.03570970147848129 4.259176731109619 
v -0.04560910165309906 -0.2429399937391281 4.13493537902832 
v 0.21625034511089325 -0.11157657206058502 4.0775933265686035 
v 0.10681655257940292 -0.21905574202537537 4.440759658813477 
v -0.25666001439094543 0.03969041258096695 4.173163414001465 
v -0.04560910165309906 -0.2429399937391281 4.13493537902832 
v -0.1824013590812683 -0.17526791989803314 4.354746341705322 
v -0.11595939844846725 0.19095739722251892 4.048922538757324 
v -0.25666001439094543 0.03969041258096695 4.173163414001465 
v -0.22539320588111877 0.10736247897148132 4.459873676300049 
v 0.17716684937477112 0.13124674558639526 4.048922538757324 
v -0.11595939844846725 0.19095739722251892 4.048922538757324 
v 0.028649549931287766 0.26261016726493835 4.369081974029541 
v 0.21625034511089325 -0.11157657206058502 4.0775933265686035 
v 0.23970045149326324 0.03570970147848129 4.259176731109619 
v 0.10681655257940292 -0.21905574202537537 4.440759658813477 
v -0.04560910165309906 -0.2429399937391281 4.13493537902832 
v 0.10681655257940292 -0.21905574202537537 4.440759658813477 
v -0.1824013590812683 -0.17526791989803314 4.354746341705322 
v -0.25666001439094543 0.03969041258096695 4.173163414001465 
v -0.1824013590812683 -0.17526791989803314 4.354746341705322 
v -0.22539320588111877 0.10736247897148132 4.459873676300049 
v -0.11595939844846725 0.19095739722251892 4.048922538757324 
v -0.22539320588111877 0.10736247897148132 4.459873676300049 
v 0.028649549931287766 0.26261016726493835 4.369081974029541 
v 0.17716684937477112 0.13124674558639526 4.048922538757324 
v 0.028649549931287766 0.26261016726493835 4.369081974029541 
v 0.23970045149326324 0.03570970147848129 4.259176731109619 
v 0.10681655257940292 -0.21905574202537537 4.440759658813477 
v 0.23970045149326324 0.03570970147848129 4.259176731109619 
v -0.006525600329041481 -0.0040974002331495285 4.631899356842041 
v -0.1824013590812683 -0.17526791989803314 4.354746341705322 
v 0.10681655257940292 -0.21905574202537537 4.440759658813477 
v -0.006525600329041481 -0.0040974002331495285 4.631899356842041 
v -0.22539320588111877 0.10736247897148132 4.459873676300049 
v -0.1824013590812683 -0.17526791989803314 4.354746341705322 
v -0.006525600329041481 -0.0040974002331495285 4.631899356842041 
v 0.028649549931287766 0.26261016726493835 4.369081974029541 
v -0.22539320588111877 0.10736247897148132 4.459873676300049 
v -0.006525600329041481 -0.0040974002331495285 4.631899356842041 
v 0.23970045149326324 0.03570970147848129 4.259176731109619 
v 0.028649549931287766 0.26261016726493835 4.369081974029541 
v -0.006525600329041481 -0.0040974002331495285 4.631899356842041 
vn 0.0865236222743988 -0.5197160243988037 -0.8499464392662048 
vn 0.0865236222743988 -0.5197160243988037 -0.8499464392662048 
vn 0.0865236222743988 -0.5197160243988037 -0.8499464392662048 
vn 0.12768417596817017 -0.10494090616703033 -0.9862475395202637 
vn 0.12768417596817017 -0.10494090616703033 -0.9862475395202637 
vn 0.12768417596817017 -0.10494090616703033 -0.9862475395202637 
vn -0.7696014046669006 -0.6058034300804138 0.2017817199230194 
vn -0.7696014046669006 -0.6058034300804138 0.2017817199230194 
vn -0.7696014046669006 -0.6058034300804138 0.2017817199230194 
vn -0.7750339508056641 0.2597652077674866 -0.5760593414306641 
vn -0.7750339508056641 0.2597652077674866 -0.5760593414306641 
vn -0.7750339508056641 0.2597652077674866 -0.5760593414306641 
vn 0.01687120646238327 0.08118870109319687 -0.9965559244155884 
vn 0.01687120646238327 0.08118870109319687 -0.9965559244155884 
vn 0.01687120646238327 0.08118870109319687 -0.9965559244155884 
vn 0.9643348455429077 0.12806843221187592 -0.23163928091526031 
vn 0.9643348455429077 0.12806843221187592 -0.23163928091526031 
vn 0.9643348455429077 0.12806843221187592 -0.23163928091526031 
vn 0.42393845319747925 -0.89523845911026 -0.1372016966342926 
vn 0.42393845319747925 -0.89523845911026 -0.1372016966342926 
vn 0.42393845319747925 -0.89523845911026 -0.1372016966342926 
vn -0.7787728905677795 -0.5396665334701538 -0.3198012113571167 
vn -0.7787728905677795 -0.5396665334701538 -0.3198012113571167 
vn -0.7787728905677795 -0.5396665334701538 -0.3198012113571167 
vn -0.755111813545227 0.6511303186416626 -0.0763898640871048 
vn -0.755111813545227 0.6511303186416626 -0.0763898640871048 
vn -0.755111813545227 0.6511303186416626 -0.0763898640871048 
vn 0.1931246817111969 0.9358224272727966 -0.2948545813560486 
vn 0.1931246817111969 0.9358224272727966 -0.2948545813560486 
vn 0.1931246817111969 0.9358224272727966 -0.2948545813560486 
vn 0.919258713722229 -0.3542179763317108 0.17173540592193604 
vn 0.919258713722229 -0.3542179763317108 0.17173540592193604 
vn 0.919258713722229 -0.3542179763317108 0.17173540592193604 
vn -0.19496741890907288 -0.965657651424408 0.17173540592193604 
vn -0.19496741890907288 -0.965657651424408 0.17173540592193604 
vn -0.19496741890907288 -0.965657651424408 0.17173540592193604 
vn -0.9653490781784058 -0.21342216432094574 0.15017375349998474 
vn -0.9653490781784058 -0.21342216432094574 0.15017375349998474 
vn -0.9653490781784058 -0.21342216432094574 0.15017375349998474 
vn -0.5105080604553223 0.859070897102356 0.03713129088282585 
vn -0.5105080604553223 0.859070897102356 0.03713129088282585 
vn -0.5105080604553223 0.859070897102356 0.03713129088282585 
vn 0.7454097867012024 0.662703275680542 0.07203252613544464 
vn 0.7454097867012024 0.662703275680542 0.07203252613544464 
vn 0.7454097867012024 0.662703275680542 0.07203252613544464 
vn 0.8353747129440308 -0.052784137427806854 0.5471406579017639 
vn 0.8353747129440308 -0.052784137427806854 0.5471406579017639 
vn 0.8353747129440308 -0.052784137427806854 0.5471406579017639 
vn -0.29751577973365784 -0.7158039212226868 0.6317508816719055 
vn -0.29751577973365784 -0.7158039212226868 0.6317508816719055 
vn -0.29751577973365784 -0.7158039212226868 0.6317508816719055 
vn -0.678242027759552 -0.35171347856521606 0.6452018022537231 
vn -0.678242027759552 -0.35171347856521606 0.6452018022537231 
vn -0.678242027759552 -0.35171347856521606 0.6452018022537231 
vn -0.18629015982151031 0.7049488425254822 0.6843559741973877 
vn -0.18629015982151031 0.7049488425254822 0.6843559741973877 
vn -0.18629015982151031 0.7049488425254822 0.6843559741973877 
vn 0.7309566140174866 0.43145397305488586 0.528724730014801 
vn 0.7309566140174866 0.43145397305488586 0.528724730014801 
vn 0.7309566140174866 0.43145397305488586 0.528724730014801 
vt 0.5248388648033142 0.30241766571998596 
vt 0.7052479386329651 0.00009000000136438757 
vt 0.7207499742507935 0.25371262431144714 
vt 0.25471341609954834 0.37864306569099426 
vt 0.5248388648033142 0.30241766571998596 
vt 0.37189391255378723 0.4604121148586273 
vt 0.5248388648033142 0.30241766571998596 
vt 0.7207499742507935 0.25371262431144714 
vt 0.55022794008255 0.44447407126426697 
vt 0.5248388648033142 0.30241766571998596 
vt 0.55022794008255 0.44447407126426697 
vt 0.46856778860092163 0.45447245240211487 
vt 0.5248388648033142 0.30241766571998596 
vt 0.46856778860092163 0.45447245240211487 
vt 0.37189391255378723 0.4604121148586273 
vt 0.25471341609954834 0.37864306569099426 
vt 0.37189391255378723 0.4604121148586273 
vt 0.2770509421825409 0.5693054795265198 
vt 0.7207499742507935 0.25371262431144714 
vt 0.7052479386329651 0.00009000000136438757 
vt 0.9999080300331116 0.15996530652046204 
vt 0.55022794008255 0.44447407126426697 
vt 0.7207499742507935 0.25371262431144714 
vt 0.7411344647407532 0.4982278048992157 
vt 0.46856778860092163 0.45447245240211487 
vt 0.55022794008255 0.44447407126426697 
vt 0.5576738119125366 0.5523775219917297 
vt 0.37189391255378723 0.4604121148586273 
vt 0.46856778860092163 0.45447245240211487 
vt 0.4513569176197052 0.5573272109031677 
vt 0.25471341609954834 0.37864306569099426 
vt 0.2770509421825409 0.5693054795265198 
vt 0.00009000000136438757 0.5706914067268372 
vt 0.7207499742507935 0.25371262431144714 
vt 0.9999080300331116 0.39715492725372314 
vt 0.7411344647407532 0.4982278048992157 
vt 0.55022794008255 0.44447407126426697 
vt 0.7411344647407532 0.4982278048992157 
vt 0.5576738119125366 0.5523775219917297 
vt 0.46856778860092163 0.45447245240211487 
vt 0.5576738119125366 0.5523775219917297 
vt 0.4513569176197052 0.5573272109031677 
vt 0.37189391255378723 0.4604121148586273 
vt 0.4513569176197052 0.5573272109031677 
vt 0.2770509421825409 0.5693054795265198 
vt 0.33686181902885437 0.8109498620033264 
vt 0.2770509421825409 0.5693054795265198 
vt 0.554378092288971 0.7439309358596802 
vt 0.7411344647407532 0.4982278048992157 
vt 0.8119310140609741 0.7403671145439148 
vt 0.554378092288971 0.7439309358596802 
vt 0.5576738119125366 0.5523775219917297 
vt 0.7411344647407532 0.4982278048992157 
vt 0.554378092288971 0.7439309358596802 
vt 0.4513569176197052 0.5573272109031677 
vt 0.5576738119125366 0.5523775219917297 
vt 0.554378092288971 0.7439309358596802 
vt 0.2770509421825409 0.5693054795265198 
vt 0.4513569176197052 0.5573272109031677 
vt 0.554378092288971 0.7439309358596802 
s on 
f 1/1/1 2/2/2 3/3/3 
f 4/4/4 5/5/5 6/6/6 
f 7/7/7 8/8/8 9/9/9 
f 10/10/10 11/11/11 12/12/12 
f 13/13/13 14/14/14 15/15/15 
f 16/16/16 17/17/17 18/18/18 
f 19/19/19 20/20/20 21/21/21 
f 22/22/22 23/23/23 24/24/24 
f 25/25/25 26/26/26 27/27/27 
f 28/28/28 29/29/29 30/30/30 
f 31/31/31 32/32/32 33/33/33 
f 34/34/34 35/35/35 36/36/36 
f 37/37/37 38/38/38 39/39/39 
f 40/40/40 41/41/41 42/42/42 
f 43/43/43 44/44/44 45/45/45 
f 46/46/46 47/47/47 48/48/48 
f 49/49/49 50/50/50 51/51/51 
f 52/52/52 53/53/53 54/54/54 
f 55/55/55 56/56/56 57/57/57 
f 58/58/58 59/59/59 60/60/60 

