mtllib model_4.mtl
o model_4
v 13.843900680541992 0.09225577116012573 52.26091766357422 
v 13.837324142456055 23.61971664428711 52.257320404052734 
v 11.69399642944336 0.09393510222434998 52.25428771972656 
v 11.7033052444458 23.60626220703125 52.262672424316406 
v 7.990719795227051 18.114526748657227 62.82030487060547 
v 7.9859619140625 12.10197639465332 62.818946838378906 
v 10.124738693237305 18.127981185913086 62.81494903564453 
v 10.121407508850098 12.097338676452637 62.81785202026367 
v -7.886178970336914 23.720705032348633 42.175079345703125 
v -7.8887529373168945 20.05324935913086 42.18070602416992 
v -8.954745292663574 23.71507453918457 42.91763687133789 
v -8.950008392333984 20.047197341918945 42.91901779174805 
v 14.145859718322754 13.659736633300781 50.63920211791992 
v 14.146113395690918 27.893136978149414 50.642784118652344 
v 13.128578186035156 13.66347885131836 51.48603820800781 
v 13.12883186340332 27.896881103515625 51.489620208740234 
v 14.14502239227295 9.427298545837402 51.83485794067383 
v 14.141148567199707 26.750293731689453 51.828067779541016 
v 13.127740859985352 9.43104076385498 52.68169403076172 
v 13.131012916564941 26.757417678833008 52.68687438964844 
v -6.800723075866699 25.86508560180664 44.06781005859375 
v -6.797392845153809 31.895729064941406 44.064910888671875 
v -4.657965660095215 25.86002540588379 44.062469482421875 
v -4.661946773529053 31.891090393066406 44.063812255859375 
v -9.260573387145996 15.548074722290039 42.105491638183594 
v -9.264575004577637 11.898712158203125 42.10686111450195 
v -10.321993827819824 15.54582405090332 42.860023498535156 
v -10.318684577941895 11.896039962768555 42.85714340209961 
v -6.560845375061035 16.737451553344727 40.949039459228516 
v -6.564175605773926 10.706809043884277 40.95193862915039 
v -8.70360279083252 16.742511749267578 40.95438003540039 
v -8.69962215423584 10.711446762084961 40.95303726196289 
v -6.316856384277344 -0.2432919144630432 48.77895736694336 
v -6.320186614990234 -6.273934841156006 48.781856536865234 
v -7.835346698760986 -0.24022163450717926 47.260372161865234 
v -7.838676929473877 -6.270864486694336 47.26327133178711 
v 2.0034008026123047 12.592041969299316 63.7242431640625 
v 2.0073816776275635 6.560977935791016 63.722900390625 
v 4.146158695220947 12.586982727050781 63.718902587890625 
v 4.142828464508057 6.556339740753174 63.7218017578125 
v 0.27271103858947754 2.2872984409332275 41.242862701416016 
v 0.2734467089176178 25.8143367767334 41.23501968383789 
v 1.6519635915756226 2.299849510192871 42.87453079223633 
v 1.646815538406372 25.809215545654297 42.87519073486328 
vn 0.002899967133998871 -0.004696343559771776 1.509668231010437 
vn 0.002899967133998871 -0.004696343559771776 1.509668231010437 
vn 0.002899967133998871 -0.004696343559771776 1.509668231010437 
vn 0.002899967133998871 -0.004696343559771776 1.509668231010437 
vn 0.002899967133998871 -0.004696343559771776 1.509668231010437 
vn 0.002899967133998871 -0.004696343559771776 1.509668231010437 
vn 0.002899967133998871 -0.004696343559771776 1.509668231010437 
vn 0.002899967133998871 -0.004696343559771776 1.509668231010437 
vn -0.8763309717178345 0.0045975325629115105 -1.2479513883590698 
vn -0.8763309717178345 0.0045975325629115105 -1.2479513883590698 
vn -0.8763309717178345 0.0045975325629115105 -1.2479513883590698 
vn -0.8763309717178345 0.0045975325629115105 -1.2479513883590698 
vn 0.9778486490249634 0.0013413081178441644 1.1687291860580444 
vn 0.9778486490249634 0.0013413081178441644 1.1687291860580444 
vn 0.9778486490249634 0.0013413081178441644 1.1687291860580444 
vn 0.9778486490249634 0.0013413081178441644 1.1687291860580444 
vn 0.9778486490249634 0.0013413081178441644 1.1687291860580444 
vn 0.9778486490249634 0.0013413081178441644 1.1687291860580444 
vn 0.9778486490249634 0.0013413081178441644 1.1687291860580444 
vn 0.9778486490249634 0.0013413081178441644 1.1687291860580444 
vn -0.0028650120366364717 0.005192649085074663 -1.509657382965088 
vn -0.0028650120366364717 0.005192649085074663 -1.509657382965088 
vn -0.0028650120366364717 0.005192649085074663 -1.509657382965088 
vn -0.0028650120366364717 0.005192649085074663 -1.509657382965088 
vn -0.8763309717178345 0.0045975325629115105 -1.2479513883590698 
vn -0.8763309717178345 0.0045975325629115105 -1.2479513883590698 
vn -0.8763309717178345 0.0045975325629115105 -1.2479513883590698 
vn -0.8763309717178345 0.0045975325629115105 -1.2479513883590698 
vn -0.0028650120366364717 0.005192649085074663 -1.509657382965088 
vn -0.0028650120366364717 0.005192649085074663 -1.509657382965088 
vn -0.0028650120366364717 0.005192649085074663 -1.509657382965088 
vn -0.0028650120366364717 0.005192649085074663 -1.509657382965088 
vn 1.0385375022888184 0.0025502934586256742 -1.0423130989074707 
vn 1.0385375022888184 0.0025502934586256742 -1.0423130989074707 
vn 1.0385375022888184 0.0025502934586256742 -1.0423130989074707 
vn 1.0385375022888184 0.0025502934586256742 -1.0423130989074707 
vn 0.002899967133998871 -0.004696343559771776 1.509668231010437 
vn 0.002899967133998871 -0.004696343559771776 1.509668231010437 
vn 0.002899967133998871 -0.004696343559771776 1.509668231010437 
vn 0.002899967133998871 -0.004696343559771776 1.509668231010437 
vn 1.1242753267288208 -0.002429539803415537 -0.9462876319885254 
vn 1.1242753267288208 -0.002429539803415537 -0.9462876319885254 
vn 1.1242753267288208 -0.002429539803415537 -0.9462876319885254 
vn 1.1242753267288208 -0.002429539803415537 -0.9462876319885254 
vt 0.6612218618392944 0.766972005367279 
vt 0.6612218618392944 0.9929218888282776 
vt 0.6406700015068054 0.766972005367279 
vt 0.6406700015068054 0.9929218888282776 
vt 0.6708225607872009 0.897111177444458 
vt 0.6708225607872009 0.8404857516288757 
vt 0.6909324526786804 0.897111177444458 
vt 0.6909324526786804 0.8404857516288757 
vt 0.6708225607872009 0.897111177444458 
vt 0.6708225607872009 0.8404857516288757 
vt 0.6909324526786804 0.897111177444458 
vt 0.6909324526786804 0.8404857516288757 
vt 0.6612218618392944 0.766972005367279 
vt 0.6612218618392944 0.9929218888282776 
vt 0.6406700015068054 0.766972005367279 
vt 0.6406700015068054 0.9929218888282776 
vt 0.6612218618392944 0.766972005367279 
vt 0.6612218618392944 0.9929218888282776 
vt 0.6406700015068054 0.766972005367279 
vt 0.6406700015068054 0.9929218888282776 
vt 0.6909324526786804 0.8404857516288757 
vt 0.6909324526786804 0.897111177444458 
vt 0.6708225607872009 0.8404857516288757 
vt 0.6708225607872009 0.897111177444458 
vt 0.6708225607872009 0.897111177444458 
vt 0.6708225607872009 0.8404857516288757 
vt 0.6909324526786804 0.897111177444458 
vt 0.6909324526786804 0.8404857516288757 
vt 0.6708225607872009 0.897111177444458 
vt 0.6708225607872009 0.8404857516288757 
vt 0.6909324526786804 0.897111177444458 
vt 0.6909324526786804 0.8404857516288757 
vt 0.6708225607872009 0.897111177444458 
vt 0.6708225607872009 0.8404857516288757 
vt 0.6909324526786804 0.897111177444458 
vt 0.6909324526786804 0.8404857516288757 
vt 0.6708225607872009 0.897111177444458 
vt 0.6708225607872009 0.8404857516288757 
vt 0.6909324526786804 0.897111177444458 
vt 0.6909324526786804 0.8404857516288757 
vt 0.6612218618392944 0.766972005367279 
vt 0.6612218618392944 0.9929218888282776 
vt 0.6406700015068054 0.766972005367279 
vt 0.6406700015068054 0.9929218888282776 
s on 
f 1/1/1 2/2/2 3/3/3 
f 2/2/2 4/4/4 3/3/3 
f 3/3/3 4/4/4 4/4/4 
f 4/4/4 5/5/5 4/4/4 
f 4/4/4 5/5/5 5/5/5 
f 5/5/5 6/6/6 5/5/5 
f 5/5/5 6/6/6 7/7/7 
f 6/6/6 8/8/8 7/7/7 
f 7/7/7 8/8/8 8/8/8 
f 8/8/8 9/9/9 8/8/8 
f 8/8/8 9/9/9 9/9/9 
f 9/9/9 10/10/10 9/9/9 
f 9/9/9 10/10/10 11/11/11 
f 10/10/10 12/12/12 11/11/11 
f 11/11/11 12/12/12 12/12/12 
f 12/12/12 13/13/13 12/12/12 
f 12/12/12 13/13/13 13/13/13 
f 13/13/13 14/14/14 13/13/13 
f 13/13/13 14/14/14 15/15/15 
f 14/14/14 16/16/16 15/15/15 
f 15/15/15 16/16/16 16/16/16 
f 16/16/16 17/17/17 16/16/16 
f 16/16/16 17/17/17 17/17/17 
f 17/17/17 18/18/18 17/17/17 
f 17/17/17 18/18/18 19/19/19 
f 18/18/18 20/20/20 19/19/19 
f 19/19/19 20/20/20 20/20/20 
f 20/20/20 21/21/21 20/20/20 
f 20/20/20 21/21/21 21/21/21 
f 21/21/21 22/22/22 21/21/21 
f 21/21/21 22/22/22 23/23/23 
f 22/22/22 24/24/24 23/23/23 
f 23/23/23 24/24/24 24/24/24 
f 24/24/24 25/25/25 24/24/24 
f 24/24/24 25/25/25 25/25/25 
f 25/25/25 26/26/26 25/25/25 
f 25/25/25 26/26/26 27/27/27 
f 26/26/26 28/28/28 27/27/27 
f 27/27/27 28/28/28 28/28/28 
f 28/28/28 29/29/29 28/28/28 
f 28/28/28 29/29/29 29/29/29 
f 29/29/29 30/30/30 29/29/29 
f 29/29/29 30/30/30 31/31/31 
f 30/30/30 32/32/32 31/31/31 
f 31/31/31 32/32/32 32/32/32 
f 32/32/32 33/33/33 32/32/32 
f 32/32/32 33/33/33 33/33/33 
f 33/33/33 34/34/34 33/33/33 
f 33/33/33 34/34/34 35/35/35 
f 34/34/34 36/36/36 35/35/35 
f 35/35/35 36/36/36 36/36/36 
f 36/36/36 37/37/37 36/36/36 
f 36/36/36 37/37/37 37/37/37 
f 37/37/37 38/38/38 37/37/37 
f 37/37/37 38/38/38 39/39/39 
f 38/38/38 40/40/40 39/39/39 
f 39/39/39 40/40/40 40/40/40 
f 40/40/40 41/41/41 40/40/40 
f 40/40/40 41/41/41 41/41/41 
f 41/41/41 42/42/42 41/41/41 
f 41/41/41 42/42/42 43/43/43 
f 42/42/42 44/44/44 43/43/43 

