mtllib model_5.mtl
o model_5
v -3.5894200801849365 0 3.532881259918213 
v 3.5329062938690186 0 3.589407444000244 
v -3.532893657684326 0 -3.5894200801849365 
v 3.589432716369629 0 -3.5328938961029053 
vn -1.0341130485562108e-13 0.999997615814209 0.002184694167226553 
vn -1.0341130485562108e-13 0.999997615814209 0.002184694167226553 
vn -1.0341130485562108e-13 0.999997615814209 0.002184694167226553 
vn -1.0341130485562108e-13 0.999997615814209 0.002184694167226553 
vt 0.9717709422111511 0.4459788203239441 
vt 0.5272570252418518 0.4459788203239441 
vt 0.9717709422111511 0.0014648400247097015 
vt 0.5272570252418518 0.0014648400247097015 
s on 
f 1/1/1 2/2/2 3/3/3 
f 2/2/2 4/4/4 3/3/3 

