mtllib model_9.mtl
o model_9
v 0.7465242147445679 -1.0861599445343018 -0.3374674916267395 
v 1.5880564451217651 1.7575478553771973 -0.6884350180625916 
v 0.8008165955543518 -1.0861599445343018 -0.17548249661922455 
v 1.696641206741333 1.7575478553771973 -0.36446499824523926 
v 0.8279628157615662 -1.0861599445343018 0.013500000350177288 
v 1.7237874269485474 1.7575478553771973 0.013500000350177288 
v 0.8008165955543518 -1.0861599445343018 0.17548500001430511 
v 1.696641206741333 1.7575478553771973 0.3644675016403198 
v 0.7465242147445679 -1.0861599445343018 0.33746999502182007 
v 1.5880564451217651 1.7575478553771973 0.6884375214576721 
v 0.6650856137275696 -1.0861599445343018 0.47245749831199646 
v 1.3980330228805542 1.7575478553771973 1.0124075412750244 
v 0.5565007925033569 -1.0861599445343018 0.6074450016021729 
v 1.1537171602249146 1.7575478553771973 1.2823824882507324 
v 0.4207698106765747 -1.0861599445343018 0.7154350280761719 
v 0.8551089763641357 1.7575478553771973 1.4983625411987305 
v 0.2578926086425781 -1.0861599445343018 0.7694299817085266 
v 0.5293545722961426 1.7575478553771973 1.6333500146865845 
v 0.09501539915800095 -1.0861599445343018 0.8234249949455261 
v 0.17645399272441864 1.7575478553771973 1.714342474937439 
v -0.0950080007314682 -1.0861599445343018 0.8234249949455261 
v -0.1764466017484665 1.7575478553771973 1.714342474937439 
v -0.2578851878643036 -1.0861599445343018 0.7694299817085266 
v -0.5293471813201904 1.7575478553771973 1.6333500146865845 
v -0.42076238989830017 -1.0861599445343018 0.7154350280761719 
v -0.8551015853881836 1.7575478553771973 1.4983625411987305 
v -0.5564934015274048 -1.0861599445343018 0.6074450016021729 
v -1.1537097692489624 1.7575478553771973 1.2823824882507324 
v -0.6650782227516174 -1.0861599445343018 0.47245749831199646 
v -1.398025631904602 1.7575478553771973 1.0124075412750244 
v -0.7465168237686157 -1.0861599445343018 0.33746999502182007 
v -1.588049054145813 1.7575478553771973 0.6884375214576721 
v -0.8008092045783997 -1.0861599445343018 0.17548500001430511 
v -1.6966338157653809 1.7575478553771973 0.3644675016403198 
v -0.827955424785614 -1.0861599445343018 0.013500000350177288 
v -1.7237800359725952 1.7575478553771973 0.013500000350177288 
v -0.8008092045783997 -1.0861599445343018 -0.17548249661922455 
v -1.6966338157653809 1.7575478553771973 -0.36446499824523926 
v -0.7465168237686157 -1.0861599445343018 -0.3374674916267395 
v -1.588049054145813 1.7575478553771973 -0.6884350180625916 
v -0.6650782227516174 -1.0861599445343018 -0.4724549949169159 
v -1.398025631904602 1.7575478553771973 -1.0124050378799438 
v -0.5564934015274048 -1.0861599445343018 -0.6074424982070923 
v -1.1537097692489624 1.7575478553771973 -1.2823799848556519 
v -0.42076238989830017 -1.0861599445343018 -0.7154325246810913 
v -0.8551015853881836 1.7575478553771973 -1.49836003780365 
v -0.2578851878643036 -1.0861599445343018 -0.769427478313446 
v -0.5293471813201904 1.7575478553771973 -1.633347511291504 
v -0.0950080007314682 -1.0861599445343018 -0.8234224915504456 
v -0.1764466017484665 1.7575478553771973 -1.7143399715423584 
v 0.09501539915800095 -1.0861599445343018 -0.8234224915504456 
v 0.17645399272441864 1.7575478553771973 -1.7143399715423584 
v 0.2578926086425781 -1.0861599445343018 -0.769427478313446 
v 0.5293545722961426 1.7575478553771973 -1.633347511291504 
v 0.4207698106765747 -1.0861599445343018 -0.7154325246810913 
v 0.8551089763641357 1.7575478553771973 -1.49836003780365 
v 0.5565007925033569 -1.0861599445343018 -0.6074424982070923 
v 1.1537171602249146 1.7575478553771973 -1.2823799848556519 
v 0.6650856137275696 -1.0861599445343018 -0.4724549949169159 
v 1.3980330228805542 1.7575478553771973 -1.0124050378799438 
vn 0.8695369362831116 -0.30397823452949524 -0.3892335295677185 
vn 0.8695369362831116 -0.30397823452949524 -0.3892335295677185 
vn 0.9318557977676392 -0.3043656349182129 -0.1975002884864807 
vn 0.9318557977676392 -0.3043656349182129 -0.1975002884864807 
vn 0.9524446725845337 -0.3047037422657013 0.002184694167226553 
vn 0.9524446725845337 -0.3047037422657013 0.002184694167226553 
vn 0.9318557977676392 -0.3043656349182129 0.1975002884864807 
vn 0.9318557977676392 -0.3043656349182129 0.1975002884864807 
vn 0.8696701526641846 -0.30359694361686707 0.3892335295677185 
vn 0.8696701526641846 -0.30359694361686707 0.3892335295677185 
vn 0.7701917886734009 -0.30218151211738586 0.5616858005523682 
vn 0.7701917886734009 -0.30218151211738586 0.5616858005523682 
vn 0.6379980444908142 -0.2994686961174011 0.7094202041625977 
vn 0.6379980444908142 -0.2994686961174011 0.7094202041625977 
vn 0.4769790768623352 -0.30002355575561523 0.8261215686798096 
vn 0.4769790768623352 -0.30002355575561523 0.8261215686798096 
vn 0.2945287227630615 -0.30384889245033264 0.9060511589050293 
vn 0.2945287227630615 -0.30384889245033264 0.9060511589050293 
vn 0.0996105819940567 -0.3017124533653259 0.9481810927391052 
vn 0.0996105819940567 -0.3017124533653259 0.9481810927391052 
vn -0.0996105819940567 -0.3017124533653259 0.9481810927391052 
vn -0.0996105819940567 -0.3017124533653259 0.9481810927391052 
vn -0.29722118377685547 -0.30121567845344543 0.9060511589050293 
vn -0.29722118377685547 -0.30121567845344543 0.9060511589050293 
vn -0.4769790768623352 -0.30002355575561523 0.8261215686798096 
vn -0.4769790768623352 -0.30002355575561523 0.8261215686798096 
vn -0.6363861560821533 -0.3028789460659027 0.7094202041625977 
vn -0.6363861560821533 -0.3028789460659027 0.7094202041625977 
vn -0.7715616226196289 -0.2986665964126587 0.5616858005523682 
vn -0.7715616226196289 -0.2986665964126587 0.5616858005523682 
vn -0.8709063529968262 -0.30003228783607483 0.3892335295677185 
vn -0.8709063529968262 -0.30003228783607483 0.3892335295677185 
vn -0.9318557977676392 -0.3043656349182129 0.1975002884864807 
vn -0.9318557977676392 -0.3043656349182129 0.1975002884864807 
vn -0.9524446725845337 -0.3047037422657013 0.002184694167226553 
vn -0.9524446725845337 -0.3047037422657013 0.002184694167226553 
vn -0.9318557977676392 -0.3043656349182129 -0.1975002884864807 
vn -0.9318557977676392 -0.3043656349182129 -0.1975002884864807 
vn -0.8695369362831116 -0.30397823452949524 -0.3892335295677185 
vn -0.8695369362831116 -0.30397823452949524 -0.3892335295677185 
vn -0.7700274586677551 -0.30260002613067627 -0.5616858005523682 
vn -0.7700274586677551 -0.30260002613067627 -0.5616858005523682 
vn -0.6377735733985901 -0.2999464273452759 -0.7094202041625977 
vn -0.6377735733985901 -0.2999464273452759 -0.7094202041625977 
vn -0.4762578308582306 -0.30116719007492065 -0.8261215686798096 
vn -0.4762578308582306 -0.30116719007492065 -0.8261215686798096 
vn -0.2938365638256073 -0.30451828241348267 -0.9060511589050293 
vn -0.2938365638256073 -0.30451828241348267 -0.9060511589050293 
vn -0.09674464166164398 -0.3026435971260071 -0.9481810927391052 
vn -0.09674464166164398 -0.3026435971260071 -0.9481810927391052 
vn 0.09674464166164398 -0.3026435971260071 -0.9481810927391052 
vn 0.09674464166164398 -0.3026435971260071 -0.9481810927391052 
vn 0.2938365638256073 -0.30451828241348267 -0.9060511589050293 
vn 0.2938365638256073 -0.30451828241348267 -0.9060511589050293 
vn 0.4762578308582306 -0.30116719007492065 -0.8261215686798096 
vn 0.4762578308582306 -0.30116719007492065 -0.8261215686798096 
vn 0.6377735733985901 -0.2999464273452759 -0.7094202041625977 
vn 0.6377735733985901 -0.2999464273452759 -0.7094202041625977 
vn 0.7700274586677551 -0.30260002613067627 -0.5616858005523682 
vn 0.7700274586677551 -0.30260002613067627 -0.5616858005523682 
vt 0.6973714828491211 0.584796130657196 
vt 0.7439514398574829 0.4609418511390686 
vt 0.7056737542152405 0.5902724862098694 
vt 0.7769419550895691 0.47881680727005005 
vt 0.7125777006149292 0.597369909286499 
vt 0.8055191040039062 0.5031758546829224 
vt 0.7179086208343506 0.6057378649711609 
vt 0.8283721208572388 0.5328798294067383 
vt 0.7213606238365173 0.6150258183479309 
vt 0.8445833325386047 0.5667458772659302 
vt 0.722846269607544 0.6248395442962646 
vt 0.8533662557601929 0.6031967997550964 
vt 0.7222345471382141 0.6347408890724182 
vt 0.8544149398803711 0.6406992077827454 
vt 0.7195690870285034 0.6442916989326477 
vt 0.8476420640945435 0.6776320338249207 
vt 0.7150247097015381 0.6530977487564087 
vt 0.8333097696304321 0.7122867107391357 
vt 0.7086887955665588 0.660764753818512 
vt 0.8121172189712524 0.7432612180709839 
vt 0.7009108662605286 0.6669421195983887 
vt 0.7849382758140564 0.769109845161438 
vt 0.6920406222343445 0.6713232398033142 
vt 0.7529528141021729 0.7887810468673706 
vt 0.6824274659156799 0.6738204956054688 
vt 0.7176027894020081 0.8013548851013184 
vt 0.6725084781646729 0.6742585897445679 
vt 0.6803737878799438 0.8063055276870728 
vt 0.6627642512321472 0.6725937724113464 
vt 0.6429699659347534 0.803413987159729 
vt 0.6535007357597351 0.6689574122428894 
vt 0.6069644689559937 0.7928116917610168 
vt 0.6452421545982361 0.6634810566902161 
vt 0.5739740133285522 0.7749367356300354 
vt 0.638294517993927 0.6564274430274963 
vt 0.5453968048095703 0.7505776882171631 
vt 0.6329635977745056 0.6480594873428345 
vt 0.5225000977516174 0.7208299040794373 
vt 0.6295115947723389 0.6387715339660645 
vt 0.5063325762748718 0.6870076656341553 
vt 0.6280696392059326 0.6289578080177307 
vt 0.4975060224533081 0.6505129337310791 
vt 0.6286814212799072 0.6190564632415771 
vt 0.49650099873542786 0.6130105257034302 
vt 0.6313031315803528 0.6094618439674377 
vt 0.5033175945281982 0.5760776996612549 
vt 0.6358912587165833 0.6006996035575867 
vt 0.5176061391830444 0.5414230227470398 
vt 0.6421834826469421 0.5930325984954834 
vt 0.5388424396514893 0.5104485154151917 
vt 0.6499613523483276 0.5868552327156067 
vt 0.5660213232040405 0.48459988832473755 
vt 0.6588316559791565 0.5824303030967712 
vt 0.5980067849159241 0.46497246623039246 
vt 0.6684447526931763 0.5799768567085266 
vt 0.6333568692207336 0.4523986577987671 
vt 0.6783637404441833 0.5795387625694275 
vt 0.6705421805381775 0.4474479854106903 
vt 0.6881516575813293 0.581159770488739 
vt 0.7079459428787231 0.45033952593803406 
s on 
f 1/1/1 2/2/2 3/3/3 
f 2/2/2 4/4/4 3/3/3 
f 3/3/3 4/4/4 5/5/5 
f 4/4/4 6/6/6 5/5/5 
f 5/5/5 6/6/6 7/7/7 
f 6/6/6 8/8/8 7/7/7 
f 7/7/7 8/8/8 9/9/9 
f 8/8/8 10/10/10 9/9/9 
f 9/9/9 10/10/10 11/11/11 
f 10/10/10 12/12/12 11/11/11 
f 11/11/11 12/12/12 13/13/13 
f 12/12/12 14/14/14 13/13/13 
f 13/13/13 14/14/14 15/15/15 
f 14/14/14 16/16/16 15/15/15 
f 15/15/15 16/16/16 17/17/17 
f 16/16/16 18/18/18 17/17/17 
f 17/17/17 18/18/18 19/19/19 
f 18/18/18 20/20/20 19/19/19 
f 19/19/19 20/20/20 21/21/21 
f 20/20/20 22/22/22 21/21/21 
f 21/21/21 22/22/22 23/23/23 
f 22/22/22 24/24/24 23/23/23 
f 23/23/23 24/24/24 25/25/25 
f 24/24/24 26/26/26 25/25/25 
f 25/25/25 26/26/26 27/27/27 
f 26/26/26 28/28/28 27/27/27 
f 27/27/27 28/28/28 29/29/29 
f 28/28/28 30/30/30 29/29/29 
f 29/29/29 30/30/30 31/31/31 
f 30/30/30 32/32/32 31/31/31 
f 31/31/31 32/32/32 33/33/33 
f 32/32/32 34/34/34 33/33/33 
f 33/33/33 34/34/34 35/35/35 
f 34/34/34 36/36/36 35/35/35 
f 35/35/35 36/36/36 37/37/37 
f 36/36/36 38/38/38 37/37/37 
f 37/37/37 38/38/38 39/39/39 
f 38/38/38 40/40/40 39/39/39 
f 39/39/39 40/40/40 41/41/41 
f 40/40/40 42/42/42 41/41/41 
f 41/41/41 42/42/42 43/43/43 
f 42/42/42 44/44/44 43/43/43 
f 43/43/43 44/44/44 45/45/45 
f 44/44/44 46/46/46 45/45/45 
f 45/45/45 46/46/46 47/47/47 
f 46/46/46 48/48/48 47/47/47 
f 47/47/47 48/48/48 49/49/49 
f 48/48/48 50/50/50 49/49/49 
f 49/49/49 50/50/50 51/51/51 
f 50/50/50 52/52/52 51/51/51 
f 51/51/51 52/52/52 53/53/53 
f 52/52/52 54/54/54 53/53/53 
f 53/53/53 54/54/54 55/55/55 
f 54/54/54 56/56/56 55/55/55 
f 55/55/55 56/56/56 57/57/57 
f 56/56/56 58/58/58 57/57/57 
f 57/57/57 58/58/58 59/59/59 
f 58/58/58 60/60/60 59/59/59 
f 59/59/59 60/60/60 1/1/1 
f 60/60/60 2/2/2 1/1/1 

