mtllib model_7.mtl
o model_7
v 3.808541774749756 0 3.7485644817352295 
v 3.7485644817352295 0 -3.8085498809814453 
v -3.748572826385498 0 3.808541774749756 
v -3.8085498809814453 0 -3.748572826385498 
vn -1.0341130485562108e-13 0.999997615814209 0.002184694167226553 
vn -1.0341130485562108e-13 0.999997615814209 0.002184694167226553 
vn -1.0341130485562108e-13 0.999997615814209 0.002184694167226553 
vn -1.0341130485562108e-13 0.999997615814209 0.002184694167226553 
vt 0.4731161594390869 0.9985353350639343 
vt 0.0014648400247097015 0.9985353350639343 
vt 0.4731161594390869 0.5268840193748474 
vt 0.0014648400247097015 0.5268840193748474 
s on 
f 1/1/1 2/2/2 3/3/3 
f 2/2/2 4/4/4 3/3/3 

