mtllib model_1.mtl
o model_1
v 2.565110206604004 -13.258309364318848 -5.3393425941467285 
v 6.320024013519287 -13.258309364318848 -3.8067243099212646 
v 2.565110206604004 -14.51783275604248 -5.3393425941467285 
v 6.320024013519287 -14.51783275604248 -3.8067243099212646 
v 7.9292731285095215 -13.258309364318848 0.02482018992304802 
v 7.9292731285095215 -14.51783275604248 0.02482018992304802 
v 6.320024013519287 -13.258309364318848 3.779733896255493 
v 6.320024013519287 -14.51783275604248 3.779733896255493 
v 2.565110206604004 -13.258309364318848 5.388982772827148 
v 2.565110206604004 -14.51783275604248 5.388982772827148 
v 2.565110206604004 -13.258309364318848 5.388982772827148 
v -1.2664343118667603 -13.258309364318848 3.779733896255493 
v 2.565110206604004 -14.51783275604248 5.388982772827148 
v -1.2664343118667603 -14.51783275604248 3.779733896255493 
v -2.7990524768829346 -13.258309364318848 0.02482018992304802 
v -2.7990524768829346 -14.51783275604248 0.02482018992304802 
v -1.2664343118667603 -13.258309364318848 -3.8067243099212646 
v -1.2664343118667603 -14.51783275604248 -3.8067243099212646 
v 2.565110206604004 -13.258309364318848 -5.3393425941467285 
v 2.565110206604004 -14.51783275604248 -5.3393425941467285 
v 7.9292731285095215 -14.51783275604248 0.02482018992304802 
v 6.320024013519287 -14.51783275604248 3.779733896255493 
v 2.565110206604004 -14.51783275604248 0.02482018992304802 
v 2.565110206604004 -14.51783275604248 5.388982772827148 
v -1.2664343118667603 -14.51783275604248 3.779733896255493 
v -2.7990524768829346 -14.51783275604248 0.02482018992304802 
v -1.2664343118667603 -14.51783275604248 -3.8067243099212646 
v 2.565110206604004 -14.51783275604248 -5.3393425941467285 
v 6.320024013519287 -14.51783275604248 -3.8067243099212646 
v -1.2664343118667603 -13.258309364318848 3.779733896255493 
v 2.565110206604004 -13.258309364318848 5.388982772827148 
v 2.565110206604004 -13.258309364318848 0.02482018992304802 
v 6.320024013519287 -13.258309364318848 3.779733896255493 
v 7.9292731285095215 -13.258309364318848 0.02482018992304802 
v 6.320024013519287 -13.258309364318848 -3.8067243099212646 
v 2.565110206604004 -13.258309364318848 -5.3393425941467285 
v -1.2664343118667603 -13.258309364318848 -3.8067243099212646 
v -2.7990524768829346 -13.258309364318848 0.02482018992304802 
vn -0.00035371442208997905 0.28975385427474976 -0.18320335447788239 
vn 0.12959331274032593 0.2964344918727875 -0.129287451505661 
vn -0.00035371442208997905 -0.28975385427474976 -0.18320335447788239 
vn 0.12959331274032593 -0.2964344918727875 -0.129287451505661 
vn 0.1830207258462906 0.29801303148269653 -0.0004070787981618196 
vn 0.1830207258462906 -0.29801303148269653 -0.0004070787981618196 
vn 0.12960849702358246 0.295951783657074 0.129287451505661 
vn 0.12960849702358246 -0.295951783657074 0.129287451505661 
vn 0.00034909090027213097 0.2897542715072632 0.18320335447788239 
vn 0.00034909090027213097 -0.2897542715072632 0.18320335447788239 
vn 0.00034909090027213097 0.2897542715072632 0.18320335447788239 
vn -0.12960849702358246 0.295951783657074 0.129287451505661 
vn 0.00034909090027213097 -0.2897542715072632 0.18320335447788239 
vn -0.12960849702358246 -0.295951783657074 0.129287451505661 
vn -0.1830207258462906 0.29801303148269653 0.0004070787981618196 
vn -0.1830207258462906 -0.29801303148269653 0.0004070787981618196 
vn -0.12977395951747894 0.290638267993927 -0.129287451505661 
vn -0.12977395951747894 -0.290638267993927 -0.129287451505661 
vn -0.00035371442208997905 0.28975385427474976 -0.18320335447788239 
vn -0.00035371442208997905 -0.28975385427474976 -0.18320335447788239 
vn 0.1830207258462906 -0.29801303148269653 -0.0004070787981618196 
vn 0.12960849702358246 -0.295951783657074 0.129287451505661 
vn 5.772381135365698e-14 -1.587895154953003 0.0004070787981618196 
vn 0.00034909090027213097 -0.2897542715072632 0.18320335447788239 
vn -0.12960849702358246 -0.295951783657074 0.129287451505661 
vn -0.1830207258462906 -0.29801303148269653 0.0004070787981618196 
vn -0.12977395951747894 -0.290638267993927 -0.129287451505661 
vn -0.00035371442208997905 -0.28975385427474976 -0.18320335447788239 
vn 0.12959331274032593 -0.2964344918727875 -0.129287451505661 
vn -0.12960849702358246 0.295951783657074 0.129287451505661 
vn 0.00034909090027213097 0.2897542715072632 0.18320335447788239 
vn -1.926885266742475e-14 1.587895154953003 0.0004070787981618196 
vn 0.12960849702358246 0.295951783657074 0.129287451505661 
vn 0.1830207258462906 0.29801303148269653 -0.0004070787981618196 
vn 0.12959331274032593 0.2964344918727875 -0.129287451505661 
vn -0.00035371442208997905 0.28975385427474976 -0.18320335447788239 
vn -0.12977395951747894 0.290638267993927 -0.129287451505661 
vn -0.1830207258462906 0.29801303148269653 0.0004070787981618196 
vt 0.792481541633606 0.6774142980575562 
vt 0.6431645154953003 0.6773028373718262 
vt 0.7944051027297974 0.6307351589202881 
vt 0.6450880765914917 0.6306237578392029 
vt 0.49384745955467224 0.677247166633606 
vt 0.49577102065086365 0.6305680274963379 
vt 0.3445304334163666 0.6771357655525208 
vt 0.34637385606765747 0.6304566264152527 
vt 0.1951332539319992 0.6770800352096558 
vt 0.1970568150281906 0.6304009556770325 
vt 0.7881534695625305 0.6196502447128296 
vt 0.6388364434242249 0.6195945739746094 
vt 0.7900770306587219 0.5729711651802063 
vt 0.6407600045204163 0.5729154348373413 
vt 0.4895194172859192 0.6194831728935242 
vt 0.491443008184433 0.5728040337562561 
vt 0.3402023911476135 0.6194274425506592 
vt 0.3421259820461273 0.5727483630180359 
vt 0.19088536500930786 0.619316041469574 
vt 0.19280894100666046 0.5726369023323059 
vt 0.7670744061470032 0.26755160093307495 
vt 0.8148429989814758 0.38101860880851746 
vt 0.653984546661377 0.3820212781429291 
vt 0.7684369087219238 0.4950426518917084 
vt 0.6549463272094727 0.5428358316421509 
vt 0.5409749150276184 0.4964352250099182 
vt 0.49312612414360046 0.3829682171344757 
vt 0.539612352848053 0.2689441740512848 
vt 0.6530227661132812 0.22115099430084229 
vt 0.2064342200756073 0.49805060029029846 
vt 0.15834499895572662 0.3856976628303528 
vt 0.3180012106895447 0.38385945558547974 
vt 0.20378930866718292 0.2722863554954529 
vt 0.3161577880382538 0.22421465814113617 
vt 0.42956820130348206 0.269668310880661 
vt 0.477577269077301 0.3820212781429291 
vt 0.4321329593658447 0.495432585477829 
vt 0.31984463334083557 0.5435042381286621 
s on 
f 1/1/1 2/2/2 3/3/3 
f 2/2/2 4/4/4 3/3/3 
f 3/3/3 4/4/4 4/4/4 
f 4/4/4 2/2/2 4/4/4 
f 4/4/4 2/2/2 2/2/2 
f 2/2/2 5/5/5 2/2/2 
f 2/2/2 5/5/5 4/4/4 
f 5/5/5 6/6/6 4/4/4 
f 4/4/4 6/6/6 6/6/6 
f 6/6/6 5/5/5 6/6/6 
f 6/6/6 5/5/5 5/5/5 
f 5/5/5 7/7/7 5/5/5 
f 5/5/5 7/7/7 6/6/6 
f 7/7/7 8/8/8 6/6/6 
f 6/6/6 8/8/8 8/8/8 
f 8/8/8 7/7/7 8/8/8 
f 8/8/8 7/7/7 7/7/7 
f 7/7/7 9/9/9 7/7/7 
f 7/7/7 9/9/9 8/8/8 
f 9/9/9 10/10/10 8/8/8 
f 8/8/8 10/10/10 10/10/10 
f 10/10/10 11/11/11 10/10/10 
f 10/10/10 11/11/11 11/11/11 
f 11/11/11 12/12/12 11/11/11 
f 11/11/11 12/12/12 13/13/13 
f 12/12/12 14/14/14 13/13/13 
f 13/13/13 14/14/14 14/14/14 
f 14/14/14 12/12/12 14/14/14 
f 14/14/14 12/12/12 12/12/12 
f 12/12/12 15/15/15 12/12/12 
f 12/12/12 15/15/15 14/14/14 
f 15/15/15 16/16/16 14/14/14 
f 14/14/14 16/16/16 16/16/16 
f 16/16/16 15/15/15 16/16/16 
f 16/16/16 15/15/15 15/15/15 
f 15/15/15 17/17/17 15/15/15 
f 15/15/15 17/17/17 16/16/16 
f 17/17/17 18/18/18 16/16/16 
f 16/16/16 18/18/18 18/18/18 
f 18/18/18 17/17/17 18/18/18 
f 18/18/18 17/17/17 17/17/17 
f 17/17/17 19/19/19 17/17/17 
f 17/17/17 19/19/19 18/18/18 
f 19/19/19 20/20/20 18/18/18 
f 18/18/18 20/20/20 20/20/20 
f 20/20/20 21/21/21 20/20/20 
f 20/20/20 21/21/21 21/21/21 
f 21/21/21 22/22/22 21/21/21 
f 21/21/21 22/22/22 23/23/23 
f 22/22/22 24/24/24 23/23/23 
f 23/23/23 24/24/24 25/25/25 
f 24/24/24 25/25/25 25/25/25 
f 25/25/25 25/25/25 25/25/25 
f 25/25/25 26/26/26 25/25/25 
f 25/25/25 26/26/26 23/23/23 
f 26/26/26 27/27/27 23/23/23 
f 23/23/23 27/27/27 28/28/28 
f 27/27/27 28/28/28 28/28/28 
f 28/28/28 28/28/28 28/28/28 
f 28/28/28 29/29/29 28/28/28 
f 28/28/28 29/29/29 23/23/23 
f 29/29/29 21/21/21 23/23/23 
f 23/23/23 21/21/21 21/21/21 
f 21/21/21 30/30/30 21/21/21 
f 21/21/21 30/30/30 30/30/30 
f 30/30/30 31/31/31 30/30/30 
f 30/30/30 31/31/31 32/32/32 
f 31/31/31 33/33/33 32/32/32 
f 32/32/32 33/33/33 34/34/34 
f 33/33/33 34/34/34 34/34/34 
f 34/34/34 34/34/34 34/34/34 
f 34/34/34 35/35/35 34/34/34 
f 34/34/34 35/35/35 32/32/32 
f 35/35/35 36/36/36 32/32/32 
f 32/32/32 36/36/36 37/37/37 
f 36/36/36 37/37/37 37/37/37 
f 37/37/37 37/37/37 37/37/37 
f 37/37/37 38/38/38 37/37/37 
f 37/37/37 38/38/38 32/32/32 
f 38/38/38 30/30/30 32/32/32 

