mtllib model_7.mtl
o model_7
v 0.39317020773887634 -0.15196548402309418 0.9599466919898987 
v 0.5191545486450195 -0.15196548402309418 0.9599466919898987 
v 0.26718589663505554 -0.15196548402309418 0.9599466919898987 
v 0.14120158553123474 -0.15196548402309418 0.9599466919898987 
v 0.023091280832886696 -0.15196548402309418 0.9599466919898987 
v -0.10289303958415985 -0.15196548402309418 0.9599466919898987 
v -0.22887736558914185 -0.15196548402309418 0.9599466919898987 
v -0.35486167669296265 -0.15196548402309418 0.9599466919898987 
v -0.48084598779678345 -0.15196548402309418 0.9599466919898987 
v 0.5191545486450195 -0.18497027456760406 0.838225245475769 
v 0.39317020773887634 -0.18497027456760406 0.838225245475769 
v 0.26718589663505554 -0.18497027456760406 0.838225245475769 
v 0.14120158553123474 -0.18497027456760406 0.838225245475769 
v 0.023091280832886696 -0.18497027456760406 0.838225245475769 
v -0.10289303958415985 -0.18497027456760406 0.838225245475769 
v -0.22887736558914185 -0.18497027456760406 0.838225245475769 
v -0.35486167669296265 -0.18497027456760406 0.838225245475769 
v -0.48084598779678345 -0.18497027456760406 0.838225245475769 
v 0.5191545486450195 -0.18992100656032562 0.7165037989616394 
v 0.39317020773887634 -0.18992100656032562 0.7165037989616394 
v 0.26718589663505554 -0.18992100656032562 0.7165037989616394 
v 0.14120158553123474 -0.18992100656032562 0.7165037989616394 
v 0.023091280832886696 -0.18992100656032562 0.7165037989616394 
v -0.10289303958415985 -0.18992100656032562 0.7165037989616394 
v -0.22887736558914185 -0.18992100656032562 0.7165037989616394 
v -0.35486167669296265 -0.18992100656032562 0.7165037989616394 
v -0.48084598779678345 -0.18992100656032562 0.7165037989616394 
v 0.5191545486450195 -0.13381284475326538 0.602389931678772 
v 0.39317020773887634 -0.13381284475326538 0.602389931678772 
v 0.26718589663505554 -0.13381284475326538 0.602389931678772 
v 0.14120158553123474 -0.13381284475326538 0.602389931678772 
v 0.023091280832886696 -0.13381284475326538 0.602389931678772 
v -0.10289303958415985 -0.13381284475326538 0.602389931678772 
v -0.22887736558914185 -0.13381284475326538 0.602389931678772 
v -0.35486167669296265 -0.13381284475326538 0.602389931678772 
v -0.48084598779678345 -0.13381284475326538 0.602389931678772 
v 0.39317020773887634 -0.0826554000377655 0.4806685149669647 
v 0.26718589663505554 -0.0826554000377655 0.4806685149669647 
v 0.14120158553123474 -0.0826554000377655 0.4806685149669647 
v 0.023091280832886696 -0.0826554000377655 0.4806685149669647 
v -0.10289303958415985 -0.0826554000377655 0.4806685149669647 
v -0.22887736558914185 -0.0826554000377655 0.4806685149669647 
v -0.35486167669296265 -0.0826554000377655 0.4806685149669647 
v -0.48084598779678345 -0.0826554000377655 0.4806685149669647 
v 0.5191545486450195 -0.0826554000377655 0.4806685149669647 
v 0.26718589663505554 -0.09585732221603394 0.3589470684528351 
v 0.14120158553123474 -0.09585732221603394 0.3589470684528351 
v 0.39317020773887634 -0.09585732221603394 0.3589470684528351 
v 0.023091280832886696 -0.09585732221603394 0.3589470684528351 
v 0.5191545486450195 -0.09585732221603394 0.3589470684528351 
v -0.10289303958415985 -0.09585732221603394 0.3589470684528351 
v -0.48084598779678345 -0.09585732221603394 0.3589470684528351 
v -0.35486167669296265 -0.09585732221603394 0.3589470684528351 
v -0.22887736558914185 -0.09585732221603394 0.3589470684528351 
v -0.48084598779678345 -0.11235971748828888 0.22961804270744324 
v -0.35486167669296265 -0.11235971748828888 0.22961804270744324 
v -0.22887736558914185 -0.11235971748828888 0.22961804270744324 
v -0.10289303958415985 -0.11235971748828888 0.22961804270744324 
v 0.14120158553123474 -0.11235971748828888 0.22961804270744324 
v 0.26718589663505554 -0.11235971748828888 0.22961804270744324 
v 0.5191545486450195 -0.11235971748828888 0.22961804270744324 
v 0.39317020773887634 -0.11235971748828888 0.22961804270744324 
v 0.023091280832886696 -0.11235971748828888 0.22961804270744324 
v 0.5191545486450195 -0.06285251677036285 0.115504190325737 
v 0.39317020773887634 -0.06285251677036285 0.115504190325737 
v 0.26718589663505554 -0.06285251677036285 0.115504190325737 
v 0.14120158553123474 -0.06285251677036285 0.115504190325737 
v 0.023091280832886696 -0.06285251677036285 0.115504190325737 
v -0.10289303958415985 -0.06285251677036285 0.115504190325737 
v -0.22887736558914185 -0.06285251677036285 0.115504190325737 
v -0.35486167669296265 -0.06285251677036285 0.115504190325737 
v -0.48084598779678345 -0.06285251677036285 0.115504190325737 
v -0.48084598779678345 0.019659480080008507 -0.006217250134795904 
v -0.35486167669296265 0.019659480080008507 -0.006217250134795904 
v -0.22887736558914185 0.019659480080008507 -0.006217250134795904 
v -0.10289303958415985 0.019659480080008507 -0.006217250134795904 
v 0.023091280832886696 0.019659480080008507 -0.006217250134795904 
v 0.14120158553123474 0.019659480080008507 -0.006217250134795904 
v 0.26718589663505554 0.019659480080008507 -0.006217250134795904 
v 0.39317020773887634 0.019659480080008507 -0.006217250134795904 
v 0.5191545486450195 0.019659480080008507 -0.006217250134795904 
vn -9.945660966884443e-14 0.9617552757263184 -0.27391019463539124 
vn -9.945660966884443e-14 0.9617552757263184 -0.27391019463539124 
vn -9.945660966884443e-14 0.9617552757263184 -0.27391019463539124 
vn -9.945660966884443e-14 0.9617552757263184 -0.27391019463539124 
vn -9.945660966884443e-14 0.9617552757263184 -0.27391019463539124 
vn -9.945660966884443e-14 0.9617552757263184 -0.27391019463539124 
vn -9.945660966884443e-14 0.9617552757263184 -0.27391019463539124 
vn -9.945660966884443e-14 0.9617552757263184 -0.27391019463539124 
vn -9.945660966884443e-14 0.9617552757263184 -0.27391019463539124 
vn 0.0037733782082796097 0.9873023629188538 -0.15880759060382843 
vn 0.0037733782082796097 0.9873023629188538 -0.15880759060382843 
vn 0.0037733782082796097 0.9873023629188538 -0.15880759060382843 
vn 0.0037733782082796097 0.9873023629188538 -0.15880759060382843 
vn 0.0037733782082796097 0.9873023629188538 -0.15880759060382843 
vn 0.0037733782082796097 0.9873023629188538 -0.15880759060382843 
vn 0.0037733782082796097 0.9873023629188538 -0.15880759060382843 
vn 0.0037733782082796097 0.9873023629188538 -0.15880759060382843 
vn 0.0037733782082796097 0.9873023629188538 -0.15880759060382843 
vn 0.0037731043994426727 0.9776225090026855 0.2103329300880432 
vn 0.0037731043994426727 0.9776225090026855 0.2103329300880432 
vn 0.0037731043994426727 0.9776225090026855 0.2103329300880432 
vn 0.0037731043994426727 0.9776225090026855 0.2103329300880432 
vn 0.0037731043994426727 0.9776225090026855 0.2103329300880432 
vn 0.0037731043994426727 0.9776225090026855 0.2103329300880432 
vn 0.0037731043994426727 0.9776225090026855 0.2103329300880432 
vn 0.0037731043994426727 0.9776225090026855 0.2103329300880432 
vn 0.0037731043994426727 0.9776225090026855 0.2103329300880432 
vn -9.435439490270911e-14 0.912416398525238 0.40926313400268555 
vn -9.435439490270911e-14 0.912416398525238 0.40926313400268555 
vn -9.435439490270911e-14 0.912416398525238 0.40926313400268555 
vn -9.435439490270911e-14 0.912416398525238 0.40926313400268555 
vn -9.435439490270911e-14 0.912416398525238 0.40926313400268555 
vn -9.435439490270911e-14 0.912416398525238 0.40926313400268555 
vn -9.435439490270911e-14 0.912416398525238 0.40926313400268555 
vn -9.435439490270911e-14 0.912416398525238 0.40926313400268555 
vn -9.435439490270911e-14 0.912416398525238 0.40926313400268555 
vn 0.003775994060561061 0.9879868030548096 0.15449213981628418 
vn 0.003775994060561061 0.9879868030548096 0.15449213981628418 
vn 0.003775994060561061 0.9879868030548096 0.15449213981628418 
vn 0.003775994060561061 0.9879868030548096 0.15449213981628418 
vn 0.003775994060561061 0.9879868030548096 0.15449213981628418 
vn 0.003775994060561061 0.9879868030548096 0.15449213981628418 
vn 0.003775994060561061 0.9879868030548096 0.15449213981628418 
vn 0.003775994060561061 0.9879868030548096 0.15449213981628418 
vn 0.003775994060561061 0.9879868030548096 0.15449213981628418 
vn -0.0018866714090108871 0.9933021664619446 -0.11553031951189041 
vn -0.0018866714090108871 0.9933021664619446 -0.11553031951189041 
vn -0.0018866714090108871 0.9933021664619446 -0.11553031951189041 
vn -0.0018866714090108871 0.9933021664619446 -0.11553031951189041 
vn -0.0018866714090108871 0.9933021664619446 -0.11553031951189041 
vn -0.0018866714090108871 0.9933021664619446 -0.11553031951189041 
vn -0.0018866714090108871 0.9933021664619446 -0.11553031951189041 
vn -0.0018866714090108871 0.9933021664619446 -0.11553031951189041 
vn -0.0018866714090108871 0.9933021664619446 -0.11553031951189041 
vn -1.0237063340036087e-13 0.9899342060089111 0.1415284425020218 
vn -1.0237063340036087e-13 0.9899342060089111 0.1415284425020218 
vn -1.0237063340036087e-13 0.9899342060089111 0.1415284425020218 
vn -1.0237063340036087e-13 0.9899342060089111 0.1415284425020218 
vn -1.0237063340036087e-13 0.9899342060089111 0.1415284425020218 
vn -1.0237063340036087e-13 0.9899342060089111 0.1415284425020218 
vn -1.0237063340036087e-13 0.9899342060089111 0.1415284425020218 
vn -1.0237063340036087e-13 0.9899342060089111 0.1415284425020218 
vn -1.0237063340036087e-13 0.9899342060089111 0.1415284425020218 
vn -0.0018854718655347824 0.8774389028549194 0.4796847105026245 
vn -0.0018854718655347824 0.8774389028549194 0.4796847105026245 
vn -0.0018854718655347824 0.8774389028549194 0.4796847105026245 
vn -0.0018854718655347824 0.8774389028549194 0.4796847105026245 
vn -0.0018854718655347824 0.8774389028549194 0.4796847105026245 
vn -0.0018854718655347824 0.8774389028549194 0.4796847105026245 
vn -0.0018854718655347824 0.8774389028549194 0.4796847105026245 
vn -0.0018854718655347824 0.8774389028549194 0.4796847105026245 
vn -0.0018854718655347824 0.8774389028549194 0.4796847105026245 
vn 0.0018858956173062325 0.8224084973335266 0.5688942670822144 
vn 0.0018858956173062325 0.8224084973335266 0.5688942670822144 
vn 0.0018858956173062325 0.8224084973335266 0.5688942670822144 
vn 0.0018858956173062325 0.8224084973335266 0.5688942670822144 
vn 0.0018858956173062325 0.8224084973335266 0.5688942670822144 
vn 0.0018858956173062325 0.8224084973335266 0.5688942670822144 
vn 0.0018858956173062325 0.8224084973335266 0.5688942670822144 
vn 0.0018858956173062325 0.8224084973335266 0.5688942670822144 
vn 0.0018858956173062325 0.8224084973335266 0.5688942670822144 
vt 0.1319752186536789 0.9892009496688843 
vt 0.009599920362234116 0.9890812039375305 
vt 0.25447025895118713 0.9894404411315918 
vt 0.3768455684185028 0.9895601868629456 
vt 0.49934062361717224 0.9896799325942993 
vt 0.6217159032821655 0.9899194240570068 
vt 0.744210958480835 0.9900391101837158 
vt 0.8665862679481506 0.9902786016464233 
vt 0.9890813231468201 0.9903983473777771 
vt 0.009719661436975002 0.8665861487388611 
vt 0.1322147101163864 0.8668256402015686 
vt 0.2545900046825409 0.8669453859329224 
vt 0.3770850598812103 0.8671848773956299 
vt 0.4994603395462036 0.8673046231269836 
vt 0.621955394744873 0.8674243688583374 
vt 0.7443307042121887 0.8676638603210449 
vt 0.8668257594108582 0.8677836060523987 
vt 0.9892010688781738 0.8680230379104614 
vt 0.009959142655134201 0.7442108392715454 
vt 0.13233444094657898 0.7443305850028992 
vt 0.2548294961452484 0.7445700764656067 
vt 0.3772047758102417 0.7446898221969604 
vt 0.49969983100891113 0.7448095679283142 
vt 0.6220751404762268 0.7450490593910217 
vt 0.7445701956748962 0.7451688051223755 
vt 0.8669455051422119 0.745408296585083 
vt 0.9894405007362366 0.7455280423164368 
vt 0.010078883729875088 0.6217158436775208 
vt 0.1325739324092865 0.6219552755355835 
vt 0.2549492418766022 0.6220750212669373 
vt 0.3774442672729492 0.6223145127296448 
vt 0.4998195767402649 0.6224342584609985 
vt 0.6223146319389343 0.6225540041923523 
vt 0.74468994140625 0.6227934956550598 
vt 0.8671849370002747 0.6229132413864136 
vt 0.9895602464675903 0.6231527328491211 
vt 0.13269366323947906 0.49946025013923645 
vt 0.2551887035369873 0.49969974160194397 
vt 0.377564013004303 0.49981948733329773 
vt 0.5000590682029724 0.5000589489936829 
vt 0.6224343776702881 0.5001786947250366 
vt 0.7448096871376038 0.5002984404563904 
vt 0.8673046827316284 0.5005379319190979 
vt 0.9896799921989441 0.5006576776504517 
vt 0.010318365879356861 0.4993405342102051 
vt 0.25530844926834106 0.37720468640327454 
vt 0.37768375873565674 0.37744417786598206 
vt 0.13281340897083282 0.37708497047424316 
vt 0.5001788139343262 0.3775639235973358 
vt 0.010438106954097748 0.37684547901153564 
vt 0.6225541234016418 0.3776836693286896 
vt 0.9899194836616516 0.378282368183136 
vt 0.8674244284629822 0.37804287672042847 
vt 0.7450491189956665 0.3779231607913971 
vt 0.9900392293930054 0.25578731298446655 
vt 0.8676639199256897 0.2556675970554352 
vt 0.7451688647270203 0.25542810559272766 
vt 0.6227935552597046 0.2553083598613739 
vt 0.37792325019836426 0.254949152469635 
vt 0.2554281949996948 0.25482940673828125 
vt 0.010557848028838634 0.25447016954421997 
vt 0.13305288553237915 0.25458991527557373 
vt 0.5002985596656799 0.25518861413002014 
vt 0.010797330178320408 0.13197512924671173 
vt 0.1331726312637329 0.13221462070941925 
vt 0.25566768646240234 0.13233435153961182 
vt 0.37804296612739563 0.13257384300231934 
vt 0.5005379915237427 0.1326935738325119 
vt 0.6229133009910583 0.13281331956386566 
vt 0.7454083561897278 0.133052796125412 
vt 0.8677836656570435 0.13317254185676575 
vt 0.9902787208557129 0.13341201841831207 
vt 0.9903984665870667 0.010916980914771557 
vt 0.868023157119751 0.01079723984003067 
vt 0.7455281019210815 0.010557757690548897 
vt 0.6231527924537659 0.01043801661580801 
vt 0.5006577372550964 0.010318275541067123 
vt 0.37828245759010315 0.010078794322907925 
vt 0.2557874023914337 0.009959053248167038 
vt 0.13341210782527924 0.009719571098685265 
vt 0.010917071253061295 0.009599830023944378 
s on 
f 1/1/1 2/2/2 3/3/3 
f 2/2/2 4/4/4 3/3/3 
f 3/3/3 4/4/4 4/4/4 
f 4/4/4 2/2/2 4/4/4 
f 4/4/4 2/2/2 5/5/5 
f 2/2/2 6/6/6 5/5/5 
f 5/5/5 6/6/6 6/6/6 
f 6/6/6 2/2/2 6/6/6 
f 6/6/6 2/2/2 7/7/7 
f 2/2/2 8/8/8 7/7/7 
f 7/7/7 8/8/8 8/8/8 
f 8/8/8 2/2/2 8/8/8 
f 8/8/8 2/2/2 9/9/9 
f 2/2/2 10/10/10 9/9/9 
f 9/9/9 10/10/10 11/11/11 
f 10/10/10 12/12/12 11/11/11 
f 11/11/11 12/12/12 9/9/9 
f 12/12/12 13/13/13 9/9/9 
f 9/9/9 13/13/13 14/14/14 
f 13/13/13 10/10/10 14/14/14 
f 14/14/14 10/10/10 15/15/15 
f 10/10/10 16/16/16 15/15/15 
f 15/15/15 16/16/16 9/9/9 
f 16/16/16 17/17/17 9/9/9 
f 9/9/9 17/17/17 18/18/18 
f 17/17/17 10/10/10 18/18/18 
f 18/18/18 10/10/10 19/19/19 
f 10/10/10 19/19/19 19/19/19 
f 19/19/19 19/19/19 18/18/18 
f 19/19/19 18/18/18 18/18/18 
f 18/18/18 18/18/18 18/18/18 
f 18/18/18 19/19/19 18/18/18 
f 18/18/18 19/19/19 20/20/20 
f 19/19/19 21/21/21 20/20/20 
f 20/20/20 21/21/21 18/18/18 
f 21/21/21 22/22/22 18/18/18 
f 18/18/18 22/22/22 23/23/23 
f 22/22/22 19/19/19 23/23/23 
f 23/23/23 19/19/19 24/24/24 
f 19/19/19 25/25/25 24/24/24 
f 24/24/24 25/25/25 18/18/18 
f 25/25/25 26/26/26 18/18/18 
f 18/18/18 26/26/26 27/27/27 
f 26/26/26 19/19/19 27/27/27 
f 27/27/27 19/19/19 28/28/28 
f 19/19/19 28/28/28 28/28/28 
f 28/28/28 28/28/28 28/28/28 
f 28/28/28 29/29/29 28/28/28 
f 28/28/28 29/29/29 27/27/27 
f 29/29/29 30/30/30 27/27/27 
f 27/27/27 30/30/30 31/31/31 
f 30/30/30 28/28/28 31/31/31 
f 31/31/31 28/28/28 32/32/32 
f 28/28/28 33/33/33 32/32/32 
f 32/32/32 33/33/33 27/27/27 
f 33/33/33 34/34/34 27/27/27 
f 27/27/27 34/34/34 35/35/35 
f 34/34/34 28/28/28 35/35/35 
f 35/35/35 28/28/28 36/36/36 
f 28/28/28 37/37/37 36/36/36 
f 36/36/36 37/37/37 38/38/38 
f 37/37/37 38/38/38 38/38/38 
f 38/38/38 38/38/38 38/38/38 
f 38/38/38 39/39/39 38/38/38 
f 38/38/38 39/39/39 36/36/36 
f 39/39/39 40/40/40 36/36/36 
f 36/36/36 40/40/40 41/41/41 
f 40/40/40 37/37/37 41/41/41 
f 41/41/41 37/37/37 42/42/42 
f 37/37/37 43/43/43 42/42/42 
f 42/42/42 43/43/43 36/36/36 
f 43/43/43 44/44/44 36/36/36 
f 36/36/36 44/44/44 44/44/44 
f 44/44/44 43/43/43 44/44/44 
f 44/44/44 43/43/43 43/43/43 
f 43/43/43 45/45/45 43/43/43 
f 43/43/43 45/45/45 44/44/44 
f 45/45/45 46/46/46 44/44/44 
f 44/44/44 46/46/46 47/47/47 
f 46/46/46 48/48/48 47/47/47 
f 47/47/47 48/48/48 49/49/49 
f 48/48/48 50/50/50 49/49/49 
f 49/49/49 50/50/50 51/51/51 
f 50/50/50 52/52/52 51/51/51 
f 51/51/51 52/52/52 53/53/53 
f 52/52/52 44/44/44 53/53/53 
f 53/53/53 44/44/44 54/54/54 
f 44/44/44 47/47/47 54/54/54 
f 54/54/54 47/47/47 49/49/49 
f 47/47/47 49/49/49 49/49/49 
f 49/49/49 49/49/49 49/49/49 
f 49/49/49 51/51/51 49/49/49 
f 49/49/49 51/51/51 54/54/54 
f 51/51/51 53/53/53 54/54/54 
f 54/54/54 53/53/53 53/53/53 
f 53/53/53 55/55/55 53/53/53 
f 53/53/53 55/55/55 55/55/55 
f 55/55/55 52/52/52 55/55/55 
f 55/55/55 52/52/52 56/56/56 
f 52/52/52 57/57/57 56/56/56 
f 56/56/56 57/57/57 58/58/58 
f 57/57/57 52/52/52 58/58/58 
f 58/58/58 52/52/52 59/59/59 
f 52/52/52 60/60/60 59/59/59 
f 59/59/59 60/60/60 61/61/61 
f 60/60/60 62/62/62 61/61/61 
f 61/61/61 62/62/62 52/52/52 
f 62/62/62 60/60/60 52/52/52 
f 52/52/52 60/60/60 60/60/60 
f 60/60/60 59/59/59 60/60/60 
f 60/60/60 59/59/59 59/59/59 
f 59/59/59 61/61/61 59/59/59 
f 59/59/59 61/61/61 63/63/63 
f 61/61/61 64/64/64 63/63/63 
f 63/63/63 64/64/64 55/55/55 
f 64/64/64 65/65/65 55/55/55 
f 55/55/55 65/65/65 66/66/66 
f 65/65/65 64/64/64 66/66/66 
f 66/66/66 64/64/64 67/67/67 
f 64/64/64 68/68/68 67/67/67 
f 67/67/67 68/68/68 55/55/55 
f 68/68/68 69/69/69 55/55/55 
f 55/55/55 69/69/69 70/70/70 
f 69/69/69 64/64/64 70/70/70 
f 70/70/70 64/64/64 71/71/71 
f 64/64/64 72/72/72 71/71/71 
f 71/71/71 72/72/72 55/55/55 
f 72/72/72 55/55/55 55/55/55 
f 55/55/55 55/55/55 55/55/55 
f 55/55/55 58/58/58 55/55/55 
f 55/55/55 58/58/58 63/63/63 
f 58/58/58 59/59/59 63/63/63 
f 63/63/63 59/59/59 59/59/59 
f 59/59/59 73/73/73 59/59/59 
f 59/59/59 73/73/73 73/73/73 
f 73/73/73 72/72/72 73/73/73 
f 73/73/73 72/72/72 74/74/74 
f 72/72/72 75/75/75 74/74/74 
f 74/74/74 75/75/75 75/75/75 
f 75/75/75 72/72/72 75/75/75 
f 75/75/75 72/72/72 76/76/76 
f 72/72/72 77/77/77 76/76/76 
f 76/76/76 77/77/77 77/77/77 
f 77/77/77 72/72/72 77/77/77 
f 77/77/77 72/72/72 78/78/78 
f 72/72/72 79/79/79 78/78/78 
f 78/78/78 79/79/79 79/79/79 
f 79/79/79 72/72/72 79/79/79 
f 79/79/79 72/72/72 80/80/80 
f 72/72/72 81/81/81 80/80/80 
f 80/80/80 81/81/81 81/81/81 
f 81/81/81 43/43/43 81/81/81 
f 81/81/81 43/43/43 43/43/43 
f 43/43/43 37/37/37 43/43/43 
f 43/43/43 37/37/37 45/45/45 
f 37/37/37 28/28/28 45/45/45 
f 45/45/45 28/28/28 28/28/28 
f 28/28/28 45/45/45 28/28/28 
f 28/28/28 45/45/45 45/45/45 
f 45/45/45 50/50/50 45/45/45 
f 45/45/45 50/50/50 46/46/46 
f 50/50/50 48/48/48 46/46/46 
f 15/15/15 9/9/9 14/14/14 
f 27/27/27 35/35/35 36/36/36 
f 32/32/32 27/27/27 31/31/31 
f 19/19/19 26/26/26 25/25/25 
f 19/19/19 22/22/22 21/21/21 
f 24/24/24 18/18/18 23/23/23 
f 10/10/10 17/17/17 16/16/16 
f 10/10/10 13/13/13 12/12/12 
f 42/42/42 36/36/36 41/41/41 
f 28/28/28 34/34/34 33/33/33 
f 61/61/61 52/52/52 50/50/50 
f 81/81/81 72/72/72 64/64/64 
f 64/64/64 69/69/69 68/68/68 
f 37/37/37 40/40/40 39/39/39 
f 71/71/71 55/55/55 70/70/70 
f 67/67/67 55/55/55 66/66/66 

