mtllib model_8.mtl
o model_8
v -0.44191399216651917 -0.3980855643749237 0.8701431155204773 
v 0.5580865144729614 -0.3980855643749237 0.8701431155204773 
v -0.44191399216651917 -0.36953577399253845 0.746174693107605 
v 0.5580865144729614 -0.36953577399253845 0.746174693107605 
v 0.5580865144729614 -0.3538333773612976 0.630470871925354 
v -0.44191399216651917 -0.3538333773612976 0.630470871925354 
v -0.44191399216651917 -0.38095569610595703 0.5065025091171265 
v 0.5580865144729614 -0.38095569610595703 0.5065025091171265 
v 0.5580865144729614 -0.40807801485061646 0.3907986283302307 
v -0.44191399216651917 -0.40807801485061646 0.3907986283302307 
v -0.44191399216651917 -0.39523059129714966 0.2668302357196808 
v 0.5580865144729614 -0.39523059129714966 0.2668302357196808 
v 0.5580865144729614 -0.3581158518791199 0.14286184310913086 
v -0.44191399216651917 -0.3581158518791199 0.14286184310913086 
v -0.44191399216651917 -0.3081536889076233 0.018893439322710037 
v 0.5580865144729614 -0.3081536889076233 0.018893439322710037 
v 0.5580865144729614 -0.24391664564609528 -0.16292688250541687 
v -0.44191399216651917 -0.2267867773771286 -0.17945599555969238 
vn -0.0018861254211515188 0.9738027453422546 0.22738653421401978 
vn -0.0018861254211515188 0.9738027453422546 0.22738653421401978 
vn -0.001886497950181365 0.9836029410362244 0.18033768236637115 
vn -0.001886497950181365 0.9836029410362244 0.18033768236637115 
vn -0.0018882581498473883 0.998945951461792 -0.04586252197623253 
vn -0.0018882581498473883 0.998945951461792 -0.04586252197623253 
vn -0.0018880317220464349 0.9747869968414307 -0.22312943637371063 
vn -0.0018880317220464349 0.9747869968414307 -0.22312943637371063 
vn -0.0018869596533477306 0.9982590079307556 -0.058952588587999344 
vn -0.0018869596533477306 0.9982590079307556 -0.058952588587999344 
vn -1.0115697071221702e-13 0.9803028106689453 0.1975002884864807 
vn -1.0115697071221702e-13 0.9803028106689453 0.1975002884864807 
vn 0.0018873782828450203 0.9432094693183899 0.33219319581985474 
vn 0.0018873782828450203 0.9432094693183899 0.33219319581985474 
vn 0.0018853817600756884 0.932609498500824 0.36088213324546814 
vn 0.0018853817600756884 0.932609498500824 0.36088213324546814 
vn 0.007549903821200132 0.9372312426567078 0.34862664341926575 
vn 0.007549903821200132 0.9372312426567078 0.34862664341926575 
vt 0.9890813231468201 0.9903983473777771 
vt 0.009599920362234116 0.9890812039375305 
vt 0.9892010688781738 0.8680230379104614 
vt 0.009719661436975002 0.8665861487388611 
vt 0.009959142655134201 0.7442108392715454 
vt 0.9894405007362366 0.7455280423164368 
vt 0.9895602464675903 0.6231527328491211 
vt 0.010078883729875088 0.6217158436775208 
vt 0.010318365879356861 0.4993405342102051 
vt 0.9896799921989441 0.5006576776504517 
vt 0.9899194836616516 0.378282368183136 
vt 0.010438106954097748 0.37684547901153564 
vt 0.010557848028838634 0.25447016954421997 
vt 0.9900392293930054 0.25578731298446655 
vt 0.9902787208557129 0.13341201841831207 
vt 0.010797330178320408 0.13197512924671173 
vt 0.010917071253061295 0.009599830023944378 
vt 0.9903984665870667 0.010916980914771557 
s on 
f 1/1/1 2/2/2 3/3/3 
f 2/2/2 4/4/4 3/3/3 
f 3/3/3 4/4/4 5/5/5 
f 4/4/4 5/5/5 5/5/5 
f 5/5/5 5/5/5 3/3/3 
f 5/5/5 3/3/3 3/3/3 
f 3/3/3 3/3/3 3/3/3 
f 3/3/3 5/5/5 3/3/3 
f 3/3/3 5/5/5 6/6/6 
f 5/5/5 7/7/7 6/6/6 
f 6/6/6 7/7/7 7/7/7 
f 7/7/7 5/5/5 7/7/7 
f 7/7/7 5/5/5 5/5/5 
f 5/5/5 8/8/8 5/5/5 
f 5/5/5 8/8/8 7/7/7 
f 8/8/8 9/9/9 7/7/7 
f 7/7/7 9/9/9 10/10/10 
f 9/9/9 11/11/11 10/10/10 
f 10/10/10 11/11/11 11/11/11 
f 11/11/11 9/9/9 11/11/11 
f 11/11/11 9/9/9 9/9/9 
f 9/9/9 12/12/12 9/9/9 
f 9/9/9 12/12/12 11/11/11 
f 12/12/12 13/13/13 11/11/11 
f 11/11/11 13/13/13 14/14/14 
f 13/13/13 15/15/15 14/14/14 
f 14/14/14 15/15/15 15/15/15 
f 15/15/15 13/13/13 15/15/15 
f 15/15/15 13/13/13 13/13/13 
f 13/13/13 16/16/16 13/13/13 
f 13/13/13 16/16/16 15/15/15 
f 16/16/16 17/17/17 15/15/15 
f 15/15/15 17/17/17 18/18/18 

